<svg enable-background="new 0 0 64 64" viewBox="0 0 64 64" xmlns="http://www.w3.org/2000/svg" xmlns:xlink="http://www.w3.org/1999/xlink"><linearGradient id="a" gradientUnits="userSpaceOnUse" x1="-.056" x2="64" y1="31.8021" y2="31.8021"><stop offset="0" stop-color="#82719b"/><stop offset=".5327" stop-color="#aba0bc"/><stop offset="1" stop-color="#ccc5d6"/></linearGradient><path d="m62.21 4h-60.47c-.99 0-1.8.8-1.8 1.79v52.02c0 .99.8 1.79 1.79 1.79h60.47c.99 0 1.79-.8 1.79-1.79v-52.02c.01-.99-.79-1.79-1.78-1.79zm-1.8 3.59v7.96h-56.88v-7.96zm-56.88 48.43v-36.89h56.88v36.89zm49.51-44.45c0-1.26 1.02-2.27 2.27-2.27s2.27 1.02 2.27 2.27-1.02 2.27-2.27 2.27-2.27-1.02-2.27-2.27zm-6.57 0c0-1.26 1.02-2.27 2.27-2.27s2.27 1.02 2.27 2.27-1.02 2.27-2.27 2.27-2.27-1.02-2.27-2.27zm-6.57 0c0-1.26 1.02-2.27 2.27-2.27 1.26 0 2.27 1.02 2.27 2.27s-1.02 2.27-2.27 2.27c-1.24 0-2.27-1.02-2.27-2.27zm-18.36 19.41 2.58 2.55v.47l-4.29 4.13 4.29 4.1v.47l-2.58 2.55-6.84-6.77v-.72zm12.68-5.94h4.38l-9.69 24.59h-4.35zm7.34 5.94 6.84 6.78v.72l-6.84 6.77-2.58-2.55v-.47l4.29-4.1-4.3-4.13v-.47z" fill="url(#a)"/></svg>