<svg enable-background="new 0 0 64 64" viewBox="0 0 64 64" xmlns="http://www.w3.org/2000/svg" xmlns:xlink="http://www.w3.org/1999/xlink"><linearGradient id="a" gradientTransform="matrix(1 0 0 -1 0 64)" gradientUnits="userSpaceOnUse" x1="4.22" x2="59" y1="31.99" y2="31.99"><stop offset="0" stop-color="#82719b"/><stop offset=".5327" stop-color="#aba0bc"/><stop offset="1" stop-color="#ccc5d6"/></linearGradient><path d="m47.66 28.51c-1.02-8.65-7.69-14.7-16.23-14.7-8.8 0-15.96 7.07-15.96 15.75 0 4.54 1.92 9.06 5.01 11.82 3.8 3.39 4.21 10.14 4.21 10.21l.08 1.57h14.53l-.03-1.68c0-.06-.08-5.98 3.18-9.41l.05-.05c.14-.14.31-.32.5-.53l.38-.4-.01-.02c1.86-2.14 4.97-6.73 4.29-12.56zm-7.49 11.18c-.03.03-.07.07-.1.11-3 3.14-3.8 7.64-4.02 10.06h-8.23c-.37-2.58-1.54-7.74-5.14-10.94-2.41-2.15-3.91-5.73-3.91-9.35 0-6.87 5.68-12.45 12.66-12.45 6.92 0 12.13 4.73 12.95 11.78.64 5.45-3.06 9.64-4.21 10.79zm-14.14 15.59h12.1v3.3h-12.1zm3.85 5.42h4.4v3.3h-4.4zm.54-30.33h3.3v8.67h-3.3zm-.34-4.29c0-.99.81-1.79 1.82-1.79 1 0 1.82.8 1.82 1.79s-.82 1.8-1.82 1.8c-1.01 0-1.82-.81-1.82-1.8zm-17.59-16.06 2.32-2.35 4.48 4.41-2.32 2.35zm32.47 3.16 4.48-4.41 2.32 2.35-4.48 4.41zm7.45 8.75 6.25-.64.34 3.29-6.25.64zm-48.19 2.65.34-3.28 6.25.64-.34 3.28zm26.2-24.56h3.3v6.5h-3.3z" fill="url(#a)"/></svg>