<svg height="24" viewBox="0 0 24 24" width="24" xmlns="http://www.w3.org/2000/svg"><path d="m16.25 6c.414 0 .75.336.75.75v9.5c0 .414-.336.75-.75.75h-9.5c-.414 0-.75-.336-.75-.75v-9.5c0-.414.336-.75.75-.75zm2.75 0c0-1.104-.896-2-2-2h-11c-1.104 0-2 .896-2 2v11c0 1.104.896 2 2 2h11c1.104 0 2-.896 2-2zm-11 14v3h-1v-3zm4 0v3h-1v-3zm2 0v3h-1v-3zm-4 0v3h-1v-3zm6 0v3h-1v-3zm-8-20v3h-1v-3zm4 0v3h-1v-3zm2 0v3h-1v-3zm-4 0v3h-1v-3zm6 0v3h-1v-3zm4 15h3v1h-3zm0-4h3v1h-3zm0-2h3v1h-3zm0 4h3v1h-3zm0-6h3v1h-3zm-20 8h3v1h-3zm0-4h3v1h-3zm0-2h3v1h-3zm0 4h3v1h-3zm0-6h3v1h-3z" fill="#82719b"/></svg>