<svg enable-background="new 0 0 64 64" viewBox="0 0 64 64" xmlns="http://www.w3.org/2000/svg" xmlns:xlink="http://www.w3.org/1999/xlink"><linearGradient id="a" gradientTransform="matrix(1 0 0 -1 0 64)" gradientUnits="userSpaceOnUse" x1=".5963" x2="63.39" y1="32" y2="32"><stop offset="0" stop-color="#82719b"/><stop offset=".5327" stop-color="#aba0bc"/><stop offset="1" stop-color="#ccc5d6"/></linearGradient><path d="m55.29 60.46h-4.01c-.63-2.58-2.64-4.63-5.19-5.33v-10.81c0-5.29-2.94-9.9-7.26-12.3 4.32-2.4 7.26-7.01 7.26-12.3v-10.62c2.63-.73 4.68-2.87 5.25-5.56h3.95v18.27h3.52v-21.79h-53.56v21.8h3.52v-18.28h3.95c.57 2.69 2.62 4.83 5.25 5.56v10.6c0 5.29 2.94 9.9 7.26 12.3-4.32 2.4-7.26 7.01-7.26 12.3v10.81c-2.55.7-4.56 2.75-5.19 5.33h-4.01v-19.78h-3.52v23.32h53.56v-23.32h-3.52zm-38.89-56.92h31.26c-.6 1.35-1.94 2.31-3.51 2.31h-24.23c-1.58 0-2.93-.95-3.52-2.31zm5.09 16.17v-.99h16.83v-3.52h-16.83v-5.83h21.08v10.33c0 5.81-4.73 10.54-10.54 10.54-5.81.01-10.54-4.72-10.54-10.53zm10.54 14.07c5.81 0 10.54 4.73 10.54 10.54v1.67h-15.72v3.52h15.72v5.34h-21.07v-10.54c-.01-5.81 4.72-10.53 10.53-10.53zm-12.11 24.6h24.22c1.48 0 2.77.85 3.41 2.08h-31.04c.64-1.24 1.93-2.08 3.41-2.08zm-12.94-20.72c3.23 0 6-2.46 6.33-5.73.36-3.49-2.21-6.62-5.7-6.98-1.69-.17-3.35.32-4.67 1.41-1.32 1.07-2.14 2.6-2.31 4.29-.36 3.49 2.21 6.62 5.7 6.98.23.02.44.03.65.03zm-2.83-6.65c.08-.76.45-1.44 1.03-1.92.51-.42 1.14-.64 1.8-.64.1 0 .2.01.29.02 1.56.16 2.71 1.56 2.55 3.11-.16 1.56-1.56 2.71-3.11 2.55-1.58-.16-2.72-1.56-2.56-3.12zm52.87-6.08c-3.51 0-6.37 2.86-6.37 6.37s2.86 6.37 6.37 6.37 6.37-2.86 6.37-6.37-2.86-6.37-6.37-6.37zm0 9.21c-1.57 0-2.85-1.28-2.85-2.84 0-1.57 1.28-2.84 2.85-2.84s2.85 1.28 2.85 2.84-1.28 2.84-2.85 2.84z" fill="url(#a)"/></svg>